<svg height="512pt" viewBox="0 0 512.001 512" width="512pt" xmlns="http://www.w3.org/2000/svg"><path d="m356.4375 327.9375c-.742188 4.308594-2.0625 8.5-3.925781 12.457031-3.699219 8.476563-10.128907 15.476563-18.261719 19.882813.855469 18.945312 2.304688 36.097656-18.257812 55.636718-23.980469 22.785157-23.980469 44.886719-47.960938 44.886719h-24.0625c-.257812.011719-.519531-.015625-.769531-.085937-23.207031-.425782-23.464844-22.273438-47.1875-44.800782-12.53125-10.757812-19.421875-26.679687-18.6875-43.175781 0-4.097656.253906-8.277343.425781-12.460937-11.808594-6.972656-19.929688-18.8125-22.1875-32.339844 0 0-3.15625-29.441406 3.242188-32.597656 5.207031-2.644532 10.328124 3.15625 12.117187 5.546875-1.023437-14.941407-1.109375-29.933594-.253906-44.886719 2.472656-53.246094 53.757812-65.023438 72.53125-67.582031 4.269531-.597657 6.828125-.683594 6.828125-.683594h11.945312s76.375 3.070313 79.363282 68.265625c.851562 14.953125.765624 29.945312-.257813 44.886719 1.792969-2.390625 6.914063-8.191407 12.117187-5.546875 6.398438 3.15625 3.242188 32.597656 3.242188 32.597656zm0 0" fill="#dfc49c"/><path d="m330.839844 327.9375c-.742188 4.308594-2.0625 8.5-3.925782 12.457031-3.703124 8.476563-10.128906 15.476563-18.261718 19.882813.851562 18.945312 2.304687 36.097656-18.261719 55.636718-23.722656 22.527344-23.980469 44.375-47.191406 44.800782-23.207031-.425782-23.464844-22.273438-47.1875-44.800782-12.53125-10.757812-19.421875-26.679687-18.6875-43.175781 0-4.097656.253906-8.277343.425781-12.460937-11.808594-6.972656-19.929688-18.8125-22.1875-32.339844 0 0-3.15625-29.441406 3.242188-32.597656 5.207031-2.644532 10.328124 3.15625 12.117187 5.546875-1.023437-14.941407-1.109375-29.933594-.253906-44.886719 2.472656-53.246094 53.757812-65.023438 72.53125-67.582031 18.773437 2.558593 70.058593 14.335937 72.535156 67.582031.851563 14.953125.769531 29.945312-.257813 44.886719 1.792969-2.390625 6.914063-8.191407 12.117188-5.546875 6.402344 3.15625 3.246094 32.597656 3.246094 32.597656zm0 0" fill="#ffe0b2"/><path d="m407.554688 484.351562c-8.535157-4.523437-16.984376-9.128906-25.429688-13.824218-9.242188-5.8125-19.441406-9.941406-30.125-12.203125-3.660156-.730469-7.238281-1.847657-10.664062-3.328125-2.472657-.992188-4.867188-2.160156-7.167969-3.496094-5.828125-3.285156-12.011719-5.890625-18.433594-7.765625v-27.5625c-23.722656 22.699219-23.808594 44.628906-47.703125 44.628906h-24.0625c-23.894531 0-23.976562-21.929687-47.699219-44.628906v27.5625c-6.421875 1.875-12.605469 4.480469-18.433593 7.765625-2.304688 1.335938-4.699219 2.503906-7.167969 3.496094-3.429688 1.480468-7.003907 2.597656-10.667969 3.328125-10.679688 2.261719-20.878906 6.390625-30.121094 12.203125-8.449218 4.695312-16.898437 9.300781-25.429687 13.824218-7.570313 5.050782-14.066407 11.546876-19.113281 19.117188h341.332031c-5.046875-7.570312-11.546875-14.066406-19.113281-19.117188zm0 0" fill="#0377bc"/><path d="m341.335938 454.996094c-.085938 16.128906-.941407 32.34375-17.066407 48.472656h-136.535156c-16.128906-16.128906-16.980469-32.34375-17.066406-48.472656 2.46875-.992188 4.863281-2.160156 7.167969-3.496094 5.828124-3.285156 12.011718-5.890625 18.433593-7.765625v-27.5625c23.722657 22.699219 23.804688 44.628906 47.699219 44.628906h24.0625c23.894531 0 23.980469-21.929687 47.703125-44.628906v27.5625c6.421875 1.875 12.605469 4.480469 18.433594 7.765625 2.300781 1.335938 4.695312 2.503906 7.167969 3.496094zm0 0" fill="#dfc49c"/><path d="m503.46875 93.867188c-.019531 47.121093-38.214844 85.316406-85.335938 85.332031-4.230468.007812-8.453124-.335938-12.628906-1.023438-.085937.085938-.167968.085938-.339844 0-41.625-6.386719-72.363281-42.195312-72.363281-84.308593 0-42.113282 30.738281-77.921876 72.363281-84.308594.171876-.085938.253907-.085938.339844 0 4.175782-.6875 8.398438-1.03125 12.628906-1.023438 47.121094.015625 85.316407 38.210938 85.335938 85.332032zm0 0" fill="#bb193b"/><path d="m477.867188 93.867188c-.019532 42.105468-30.746094 77.902343-72.363282 84.308593-.085937.085938-.167968.085938-.339844 0-41.625-6.386719-72.363281-42.195312-72.363281-84.308593 0-42.113282 30.738281-77.921876 72.363281-84.308594.171876-.085938.253907-.085938.339844 0 41.617188 6.40625 72.34375 42.203125 72.363282 84.308594zm0 0" fill="#ef314c"/><path d="m179.199219 93.867188c-.015625 47.121093-38.210938 85.316406-85.332031 85.332031-4.230469.007812-8.453126-.335938-12.628907-1.023438-.085937.085938-.171875.085938-.339843 0-41.628907-6.386719-72.363282-42.195312-72.363282-84.308593 0-42.113282 30.734375-77.921876 72.363282-84.308594.167968-.085938.253906-.085938.339843 0 4.175781-.6875 8.398438-1.03125 12.628907-1.023438 47.121093.015625 85.316406 38.210938 85.332031 85.332032zm0 0" fill="#549414"/><path d="m153.601562 93.867188c-.023437 42.105468-30.746093 77.902343-72.363281 84.308593-.085937.085938-.171875.085938-.339843 0-41.628907-6.386719-72.363282-42.195312-72.363282-84.308593 0-42.113282 30.734375-77.921876 72.363282-84.308594.167968-.085938.253906-.085938.339843 0 41.617188 6.40625 72.339844 42.203125 72.363281 84.308594zm0 0" fill="#60a917"/><path d="m187.734375 512c-2.261719.003906-4.433594-.898438-6.03125-2.5-17.976563-17.964844-19.511719-36.015625-19.566406-54.464844-.003907-2.265625.886719-4.4375 2.484375-6.042968 1.59375-1.605469 3.761718-2.511719 6.027344-2.515626h.023437c4.703125 0 8.519531 3.804688 8.535156 8.507813.042969 16.375 1.113281 29.007813 14.558594 42.449219 2.441406 2.441406 3.171875 6.109375 1.851563 9.300781-1.320313 3.1875-4.433594 5.265625-7.882813 5.265625zm0 0"/><path d="m324.269531 512c-3.453125 0-6.5625-2.078125-7.882812-5.265625-1.320313-3.191406-.59375-6.859375 1.847656-9.300781 13.445313-13.441406 14.515625-26.074219 14.5625-42.449219.011719-4.703125 3.828125-8.507813 8.53125-8.507813h.027344c2.261719.003907 4.433593.910157 6.027343 2.515626 1.597657 1.605468 2.492188 3.777343 2.484376 6.042968-.054688 18.449219-1.585938 36.5-19.5625 54.464844-1.597657 1.605469-3.773438 2.503906-6.035157 2.5zm0 0"/><path d="m196.269531 469.332031c-4.714843 0-8.535156-3.820312-8.535156-8.53125v-44.660156c0-4.710937 3.820313-8.53125 8.535156-8.53125 4.710938 0 8.53125 3.820313 8.53125 8.53125v44.660156c0 4.710938-3.820312 8.53125-8.53125 8.53125zm0 0"/><path d="m267.996094 469.332031h-23.992188c-19.5 0-27.304687-11.796875-35.574218-24.289062-5.160157-8.355469-11.300782-16.058594-18.292969-22.949219-16.097657-14.320312-24.019531-35.710938-21.128907-57.058594-11.648437-8.71875-19.488281-21.589844-21.886718-35.941406-3.816406-35.519531 4.632812-39.785156 7.8125-41.394531 2.058594-1.0625 4.339844-1.621094 6.65625-1.632813h.085937c-.207031-9.175781-.054687-19.257812.460938-30.457031 2.65625-57.75 58.414062-75.226563 87.527343-76.398437l12.335938-.011719c29.457031 1.183593 85.214844 18.660156 87.867188 76.410156.511718 11.199219.671874 21.28125.464843 30.464844 2.320313.15625 4.597657.703125 6.738281 1.621093 3.179688 1.605469 11.628907 5.875 7.847657 41.117188-2.34375 14.453125-10.203125 27.433594-21.921875 36.214844 2.890625 21.351562-5.027344 42.742187-21.128906 57.058594-6.992188 6.890624-13.132813 14.597656-18.292969 22.949218-8.269531 12.5-16.078125 24.296875-35.578125 24.296875zm-86.582032-116.714843c3.09375 1.476562 5.007813 4.652343 4.871094 8.074218l-.078125 1.757813c-.789062 17.324219-1.414062 31.007812 15.691407 47.277343 7.929687 7.773438 14.902343 16.46875 20.765624 25.902344 8.183594 12.363282 11.511719 16.636719 21.339844 16.636719h23.992188c9.828125 0 13.160156-4.273437 21.34375-16.636719 5.863281-9.433594 12.832031-18.128906 20.761718-25.902344 17.105469-16.269531 16.480469-29.953124 15.691407-47.277343l-.078125-1.757813c-.101563-2.324218.75-4.59375 2.359375-6.273437.769531-.800781 1.683593-1.445313 2.699219-1.902344 9.09375-5.808594 15.335937-15.164063 17.203124-25.789063.78125-7.078124.898438-14.210937.359376-21.308593-.164063.191406-.328126.398437-.5.625-2.296876 3.003906-6.296876 4.140625-9.832032 2.789062-3.53125-1.351562-5.753906-4.867187-5.457031-8.640625.992187-14.578125 1.082031-29.207031.269531-43.800781-2.605468-56.714844-68.363281-60.015625-71.160156-60.132813l-11.65625.007813c-2.441406.117187-68.21875 3.644531-70.816406 60.125-.8125 14.59375-.722656 29.222656.265625 43.800781.296875 3.773438-1.921875 7.289063-5.457031 8.640625-3.53125 1.351563-7.53125.214844-9.828126-2.789062-.171874-.226563-.34375-.425781-.5-.625-.539062 7.191406-.40625 14.414062.390626 21.582031 1.933593 10.597656 8.230468 19.894531 17.359374 25.617188zm0 0"/><path d="m315.734375 469.332031c-4.710937 0-8.535156-3.820312-8.535156-8.53125v-44.660156c0-4.710937 3.824219-8.53125 8.535156-8.53125s8.535156 3.820313 8.535156 8.53125v44.660156c0 4.710938-3.824219 8.53125-8.535156 8.53125zm0 0"/><path d="m426.667969 512h-341.332031c-2.304688 0-4.507813-.933594-6.113282-2.582031-1.605468-1.648438-2.476562-3.875-2.417968-6.175781.222656-8.375 19.605468-24.285157 23.605468-26.425782 8.472656-4.507812 16.933594-9.058594 25.269532-13.730468 10.117187-6.253907 21.234374-10.710938 32.867187-13.175782 5.324219-1.128906 10.425781-3.117187 15.109375-5.890625 4.53125-2.492187 9.234375-4.652343 14.078125-6.46875v-21.390625c-.003906-3.421875 2.035156-6.511718 5.179687-7.855468 3.144532-1.34375 6.789063-.679688 9.257813 1.6875 7.804687 7.710937 14.679687 16.3125 20.480469 25.625 8.191406 12.375 11.523437 16.648437 21.351562 16.648437h23.992188c9.828125 0 13.164062-4.273437 21.355468-16.648437 5.800782-9.3125 12.671876-17.914063 20.480469-25.625 2.46875-2.367188 6.109375-3.027344 9.253907-1.683594 3.144531 1.339844 5.183593 4.429687 5.183593 7.851562v21.390625c4.816407 1.800781 9.496094 3.949219 14.003907 6.425781 4.710937 2.796876 9.855468 4.800782 15.21875 5.933594 11.652343 2.484375 22.785156 6.957032 32.917968 13.226563 8.25 4.625 16.707032 9.171875 25.160156 13.675781l.023438.007812c4 2.140626 23.378906 18.046876 23.601562 26.421876.058594 2.300781-.8125 4.527343-2.417968 6.175781-1.605469 1.652343-3.808594 2.582031-6.109375 2.582031zm-322.304688-17.066406h303.273438c-1.261719-1.152344-2.632813-2.179688-4.09375-3.066406-8.5625-4.550782-17.125-9.167969-25.570313-13.898438-8.460937-5.28125-17.757812-9.085938-27.492187-11.261719-7.214844-1.457031-14.136719-4.09375-20.492188-7.808593-5.175781-2.902344-10.660156-5.214844-16.355469-6.890626-3.777343-.972656-6.417968-4.375-6.433593-8.273437v-4.097656c-1.269531 1.851562-2.464844 3.652343-3.617188 5.402343-8.273437 12.496094-16.085937 24.292969-35.585937 24.292969h-23.992188c-19.5 0-27.3125-11.796875-35.582031-24.289062-1.15625-1.75-2.351563-3.550781-3.621094-5.402344v4.09375c0 3.914063-2.660156 7.328125-6.457031 8.277344-5.710938 1.691406-11.214844 4.019531-16.40625 6.933593-6.320312 3.6875-13.207031 6.308594-20.378906 7.765626-9.714844 2.15625-18.996094 5.945312-27.441406 11.207031-8.542969 4.792969-17.109376 9.410156-25.679688 13.957031-1.453125.882812-2.820312 1.910156-4.074219 3.058594zm0 0"/><path d="m418.132812 187.734375c-51.839843 0-93.863281-42.027344-93.863281-93.867187 0-51.839844 42.023438-93.867188 93.863281-93.867188 51.84375 0 93.867188 42.027344 93.867188 93.867188-.058594 51.816406-42.050781 93.808593-93.867188 93.867187zm0-170.667969c-42.414062 0-76.796874 34.386719-76.796874 76.800782 0 42.414062 34.382812 76.800781 76.796874 76.800781 42.417969 0 76.800782-34.386719 76.800782-76.800781-.046875-42.394532-34.402344-76.753907-76.800782-76.800782zm0 0"/><path d="m93.867188 187.734375c-51.839844 0-93.867188-42.027344-93.867188-93.867187 0-51.839844 42.027344-93.867188 93.867188-93.867188 51.839843 0 93.867187 42.027344 93.867187 93.867188-.058594 51.816406-42.050781 93.808593-93.867187 93.867187zm0-170.667969c-42.414063 0-76.800782 34.386719-76.800782 76.800782 0 42.414062 34.386719 76.800781 76.800782 76.800781 42.414062 0 76.800781-34.386719 76.800781-76.800781-.046875-42.394532-34.40625-76.753907-76.800781-76.800782zm0 0"/><path d="m238.679688 247.210938c-2.265626.003906-4.4375-.894532-6.035157-2.5l-12.070312-12.066407c-2.203125-2.144531-3.078125-5.308593-2.296875-8.285156.785156-2.972656 3.105468-5.292969 6.078125-6.078125 2.976562-.78125 6.140625.09375 8.285156 2.296875l12.070313 12.066406c2.441406 2.441407 3.171874 6.109375 1.851562 9.300781-1.320312 3.1875-4.433594 5.265626-7.882812 5.265626zm-36.203126-36.207032c-2.265624.003906-4.4375-.898437-6.035156-2.5l-12.074218-12.066406c-3.234376-3.347656-3.1875-8.671875.105468-11.960938 3.289063-3.292968 8.613282-3.339843 11.960938-.105468l12.070312 12.066406c2.441406 2.441406 3.171875 6.109375 1.851563 9.300781-1.320313 3.1875-4.433594 5.265625-7.882813 5.265625zm-36.210937-36.199218c-2.261719 0-4.433594-.898438-6.03125-2.5l-12.066406-12.070313c-3.246094-3.34375-3.207031-8.675781.089843-11.972656 3.296876-3.296875 8.628907-3.339844 11.976563-.09375l12.066406 12.066406c2.4375 2.441406 3.167969 6.113281 1.847657 9.300781-1.320313 3.1875-4.429688 5.269532-7.882813 5.269532zm0 0"/><path d="m401.066406 392.535156h-7.3125c-4.710937 0-8.53125-3.820312-8.53125-8.535156 0-4.710938 3.820313-8.53125 8.53125-8.53125h7.3125c1.632813 0 3.230469-.46875 4.601563-1.351562 3.960937-2.554688 9.246093-1.414063 11.800781 2.550781 2.554688 3.960937 1.410156 9.246093-2.550781 11.800781-4.128907 2.65625-8.9375 4.070312-13.851563 4.066406zm-41.445312 0h-17.066406c-4.710938 0-8.53125-3.820312-8.53125-8.535156 0-4.710938 3.820312-8.53125 8.53125-8.53125h17.066406c4.714844 0 8.535156 3.820312 8.535156 8.53125 0 4.714844-3.820312 8.535156-8.535156 8.535156zm-51.199219 0h-17.066406c-4.710938 0-8.535157-3.820312-8.535157-8.535156 0-4.710938 3.824219-8.53125 8.535157-8.53125h17.066406c4.714844 0 8.535156 3.820312 8.535156 8.53125 0 4.714844-3.820312 8.535156-8.535156 8.535156zm109.710937-34.132812c-4.710937 0-8.53125-3.824219-8.53125-8.535156v-17.066407c0-4.714843 3.820313-8.535156 8.53125-8.535156 4.714844 0 8.535157 3.820313 8.535157 8.535156v17.066407c0 4.710937-3.820313 8.535156-8.535157 8.535156zm0-51.203125c-4.710937 0-8.53125-3.820313-8.53125-8.53125v-17.066407c0-4.714843 3.820313-8.535156 8.53125-8.535156 4.714844 0 8.535157 3.820313 8.535157 8.535156v17.066407c0 4.710937-3.820313 8.53125-8.535157 8.53125zm0-51.199219c-4.710937 0-8.53125-3.820312-8.53125-8.53125v-17.066406c0-4.714844 3.820313-8.535156 8.53125-8.535156 4.714844 0 8.535157 3.820312 8.535157 8.535156v17.066406c0 4.710938-3.820313 8.53125-8.535157 8.53125zm0-51.199219c-4.710937 0-8.53125-3.820312-8.53125-8.535156v-17.066406c0-4.710938 3.820313-8.53125 8.53125-8.53125 4.714844 0 8.535157 3.820312 8.535157 8.53125v17.066406c0 4.714844-3.820313 8.535156-8.535157 8.535156zm0 0"/><path d="m136.535156 435.199219h-128c-4.714844 0-8.535156-3.820313-8.535156-8.53125v-136.535157c0-4.710937 3.820312-8.53125 8.535156-8.53125 4.710938 0 8.53125 3.820313 8.53125 8.53125v128h119.46875c4.710938 0 8.53125 3.820313 8.53125 8.535157 0 4.710937-3.820312 8.53125-8.53125 8.53125zm0 0"/><path d="m8.527344 435.199219c-2.957032 0-5.703125-1.535157-7.253906-4.050781-1.554688-2.515626-1.695313-5.652344-.371094-8.296876l42.664062-85.335937c1.394532-2.78125 4.195313-4.585937 7.304688-4.707031 3.128906-.199219 6.097656 1.40625 7.644531 4.132812l17.601563 29.34375 35.714843-71.433594c1.363281-2.726562 4.078125-4.519531 7.121094-4.703124 3.042969-.183594 5.953125 1.273437 7.632813 3.816406 1.679687 2.542968 1.875 5.792968.511718 8.519531l-42.667968 85.332031c-1.390626 2.785156-4.191407 4.589844-7.300782 4.707032-3.140625.238281-6.128906-1.375-7.648437-4.132813l-17.597657-29.339844-35.714843 71.433594c-1.449219 2.894531-4.40625 4.71875-7.640625 4.714844zm0 0"/><path d="m443.738281 145.066406c-.164062 0-.328125-.007812-.492187-.015625-3.660156-.210937-6.78125-2.738281-7.746094-6.273437l-18.183594-66.675782-16.6875 50.066407c-1.03125 3.089843-3.730468 5.324219-6.960937 5.757812-3.230469.433594-6.425781-1.011719-8.234375-3.726562l-14.53125-21.796875h-38.101563c-4.710937 0-8.53125-3.824219-8.53125-8.535156 0-4.710938 3.820313-8.535157 8.53125-8.535157h42.667969c2.851562 0 5.515625 1.429688 7.097656 3.800781l7.390625 11.085938 20.082031-60.246094c1.191407-3.570312 4.574219-5.9375 8.335938-5.832031 3.757812.105469 7.003906 2.660156 7.992188 6.289063l18.902343 69.296874 7.609375-19.027343c1.296875-3.238281 4.433594-5.363281 7.921875-5.367188h42.667969c4.710938 0 8.53125 3.824219 8.53125 8.535157 0 4.710937-3.820312 8.535156-8.53125 8.535156h-36.890625l-14.917969 37.296875c-1.296875 3.242187-4.433594 5.367187-7.921875 5.367187zm0 0"/><path d="m59.734375 136.535156c-3.449219-.003906-6.5625-2.082031-7.882813-5.269531-1.320312-3.1875-.589843-6.859375 1.851563-9.296875l68.265625-68.269531c2.140625-2.214844 5.3125-3.105469 8.296875-2.324219s5.316406 3.109375 6.09375 6.09375c.78125 2.984375-.105469 6.15625-2.324219 8.296875l-68.269531 68.269531c-1.597656 1.601563-3.769531 2.5-6.03125 2.5zm0 0"/><path d="m136.535156 128c0 4.714844-3.820312 8.535156-8.535156 8.535156-4.710938 0-8.53125-3.820312-8.53125-8.535156 0-4.710938 3.820312-8.53125 8.53125-8.53125 4.714844 0 8.535156 3.820312 8.535156 8.53125zm0 0"/><path d="m68.269531 59.734375c0 4.710937-3.824219 8.53125-8.535156 8.53125s-8.535156-3.820313-8.535156-8.53125c0-4.714844 3.824219-8.535156 8.535156-8.535156s8.535156 3.820312 8.535156 8.535156zm0 0"/></svg>