<?xml version="1.0" encoding="iso-8859-1"?>
<!-- Generator: Adobe Illustrator 19.0.0, SVG Export Plug-In . SVG Version: 6.00 Build 0)  -->
<svg version="1.1" id="Capa_1" xmlns="http://www.w3.org/2000/svg" xmlns:xlink="http://www.w3.org/1999/xlink" x="0px" y="0px"
	 viewBox="0 0 512 512" style="enable-background:new 0 0 512 512;" xml:space="preserve">
<path style="fill:#FA5419;" d="M336.003,128h-120c-44.184,0-80-35.816-80-80V8h176c13.256,0,24,10.744,24,24V128z"/>
<path style="fill:#FB7647;" d="M336.003,72h-136c-35.344,0-64-28.656-64-64l0,0h176c13.256,0,24,10.744,24,24V72z"/>
<path style="fill:#21A9F6;" d="M312.003,352l-56,56l-56-56L86.155,388.832c-13.984,4.528-25.128,15.208-30.24,29L24.003,504h464
	l-31.784-88.992c-5.16-14.456-16.928-25.576-31.656-29.904L312.003,352z"/>
<polygon style="fill:#FDBBA3;" points="216.003,312 200.003,352 256.003,408 312.003,352 296.003,312 256.003,328 "/>
<g>
	<path style="fill:#FEDDD1;" d="M336.003,120v138.208c0,3.744-1.312,7.368-3.712,10.24L296.003,312l-40,16l-40-16l-36.288-43.552
		c-2.4-2.872-3.712-6.496-3.712-10.24V120H336.003z"/>
	<path style="fill:#FEDDD1;" d="M176.003,216h-16c-8.84,0-16-7.16-16-16v-32c0-8.84,7.16-16,16-16h16V216z"/>
</g>
<circle style="fill:#FDCD3B;" cx="336.003" cy="120" r="64"/>
<polyline style="fill:#FA5419;" points="312.003,178.584 312.003,208 360.003,208 359.955,178.584 "/>
<path d="M495.531,501.312l-31.784-89c-6-16.808-19.816-29.84-36.936-34.88l-108.824-32.008l-12.784-31.968l33.232-39.88
	c3.592-4.304,5.568-9.752,5.568-15.368V240h-16v18.208c0,1.864-0.656,3.688-1.856,5.12l-34.992,41.992l-35.152,14.064
	l-35.152-14.064l-35-41.992c-1.192-1.432-1.848-3.248-1.848-5.12V216v-64v-22.112c9.936,3.896,20.704,6.112,32,6.112h34.08v-16
	h-34.08c-37.832,0-68.88-29.352-71.72-66.464C157.499,69.672,177.563,80,200.003,80h59.336V64h-59.336
	c-28.168,0-51.536-20.896-55.432-48h135.432h32c8.824,0,16,7.176,16,16v3.176h16V32c0-17.648-14.352-32-32-32h-32h-144
	c-4.424,0-8,3.576-8,8v40c0,30.816,15.952,57.936,40,73.664V144h-8c-13.232,0-24,10.768-24,24v32c0,13.232,10.768,24,24,24h8v34.208
	c0,5.608,1.976,11.064,5.56,15.368l33.232,39.88l-12.832,32.088l-110.28,35.68c-16.416,5.304-29.272,17.632-35.272,33.824
	l-31.912,86.168c-0.912,2.464-0.56,5.2,0.936,7.352c1.496,2.152,3.952,3.432,6.568,3.432h464c2.6,0,5.04-1.264,6.536-3.392
	S496.411,503.76,495.531,501.312z M160.003,208c-4.416,0-8-3.584-8-8v-32c0-4.416,3.584-8,8-8h8v48H160.003z M209.395,350.072
	l11.064-27.672l32.576,13.032c1.904,0.768,4.032,0.768,5.936,0l32.576-13.032l11.064,27.672l-46.608,46.616L209.395,350.072z
	 M35.499,496l27.92-75.392c4.288-11.56,13.472-20.368,25.192-24.168l109.192-35.328l52.536,52.536
	c1.568,1.568,3.616,2.352,5.664,2.352c2.048,0,4.096-0.784,5.656-2.344l52.64-52.64l108,31.76c12.232,3.6,22.104,12.92,26.392,24.92
	L476.651,496H35.499z"/>
<polygon points="248.003,192 248.003,248 240.003,248 240.003,264 272.003,264 272.003,248 264.003,248 264.003,192 "/>
<rect x="352.003" y="464" width="64" height="16"/>
<rect x="320.003" y="464" width="16" height="16"/>
<rect x="240.003" y="432" width="32" height="16"/>
<rect x="240.003" y="464" width="32" height="16"/>
<path d="M320.003,96h-16v16h16c4.416,0,8,3.584,8,8v40h16v-40c0-4.416,3.584-8,8-8h16V96h-16c-6.168,0-11.744,2.408-16,6.24
	C331.747,98.408,326.171,96,320.003,96z"/>
<path d="M264.003,120c0,28.2,16.336,52.592,40,64.4V208c0,4.424,3.576,8,8,8h8v8h32v-8h8c2.128,0,4.168-0.84,5.664-2.352
	c1.504-1.496,2.336-3.536,2.336-5.664l-0.04-23.56c23.688-11.8,40.04-36.208,40.04-64.424c0-39.704-32.296-72-72-72
	S264.003,80.296,264.003,120z M351.987,200h-31.984v-9.856c5.152,1.176,10.496,1.856,16,1.856c5.496,0,10.824-0.672,15.968-1.848
	L351.987,200z M392.003,120c0,30.872-25.128,56-56,56s-56-25.128-56-56s25.128-56,56-56S392.003,89.128,392.003,120z"/>
<g>
</g>
<g>
</g>
<g>
</g>
<g>
</g>
<g>
</g>
<g>
</g>
<g>
</g>
<g>
</g>
<g>
</g>
<g>
</g>
<g>
</g>
<g>
</g>
<g>
</g>
<g>
</g>
<g>
</g>
</svg>
