<svg height="512pt" viewBox="0 0 512 512" width="512pt" xmlns="http://www.w3.org/2000/svg"><path d="m238.933594 349.867188c.007812 10.367187-6.230469 19.71875-15.808594 23.691406-9.574219 3.972656-20.601562 1.78125-27.933594-5.550782-7.332031-7.328124-9.523437-18.355468-5.550781-27.933593s13.324219-15.816407 23.691406-15.808594c6.792969-.007813 13.308594 2.6875 18.113281 7.488281 4.804688 4.804688 7.496094 11.320313 7.488282 18.113282zm0 0" fill="#fec108"/><path d="m324.265625 469.332031c.003906 9.054688-3.59375 17.738281-9.992187 24.140625-6.402344 6.402344-15.085938 9.996094-24.140626 9.992188-4.398437.035156-8.753906-.835938-12.800781-2.558594-12.886719-5.183594-21.332031-17.679688-21.332031-31.574219 0-13.890625 8.445312-26.386719 21.332031-31.570312 4.046875-1.722657 8.402344-2.59375 12.800781-2.5625 9.054688 0 17.738282 3.59375 24.140626 9.996093 6.398437 6.402344 9.996093 15.085938 9.992187 24.136719zm0 0" fill="#bb193b"/><path d="m136.535156 307.199219c0 9.054687-3.59375 17.738281-9.996094 24.140625-6.402343 6.402344-15.085937 9.996094-24.140624 9.992187-4.394532.035157-8.753907-.835937-12.796876-2.558593-12.890624-5.183594-21.335937-17.679688-21.335937-31.574219 0-13.890625 8.445313-26.390625 21.335937-31.574219 4.042969-1.722656 8.402344-2.59375 12.796876-2.558594 9.054687-.003906 17.738281 3.59375 24.140624 9.996094 6.402344 6.402344 9.996094 15.085938 9.996094 24.136719zm0 0" fill="#bb193b"/><path d="m59.734375 213.332031c.007813 10.371094-6.230469 19.722657-15.808594 23.695313s-20.605469 1.78125-27.933593-5.550782c-7.332032-7.332031-9.523438-18.359374-5.550782-27.9375 3.972656-9.574218 13.324219-15.816406 23.691406-15.804687 6.792969-.011719 13.308594 2.683594 18.113282 7.488281 4.800781 4.800782 7.496094 11.316406 7.488281 18.109375zm0 0" fill="#6a1b9a"/><path d="m128 102.398438c.003906 9.054687-3.59375 17.738281-9.996094 24.140624-6.398437 6.402344-15.082031 9.996094-24.136718 9.996094-4.398438.03125-8.753907-.839844-12.800782-2.5625-12.890625-5.183594-21.332031-17.679687-21.332031-31.574218 0-13.890626 8.441406-26.386719 21.332031-31.570313 4.046875-1.722656 8.402344-2.59375 12.800782-2.5625 9.054687 0 17.738281 3.59375 24.136718 9.996094 6.402344 6.402343 10 15.085937 9.996094 24.136719zm0 0" fill="#bb193b"/><path d="m221.867188 51.199219c.007812 10.367187-6.230469 19.722656-15.808594 23.695312-9.574219 3.96875-20.601563 1.78125-27.933594-5.550781s-9.523438-18.359375-5.550781-27.9375c3.972656-9.578125 13.324219-15.816406 23.691406-15.804688 6.792969-.011718 13.308594 2.683594 18.113281 7.488282 4.800782 4.800781 7.496094 11.316406 7.488282 18.109375zm0 0" fill="#fec108"/><path d="m341.332031 42.667969c.003907 9.050781-3.589843 17.734375-9.992187 24.136719-6.402344 6.402343-15.085938 9.996093-24.140625 9.996093-4.394531.03125-8.753907-.839843-12.800781-2.5625-12.886719-5.183593-21.332032-17.679687-21.332032-31.570312 0-13.894531 8.445313-26.390625 21.332032-31.574219 4.046874-1.722656 8.40625-2.59375 12.800781-2.558594 9.054687-.003906 17.738281 3.589844 24.140625 9.992188s9.996094 15.085937 9.992187 24.140625zm0 0" fill="#bb193b"/><path d="m460.800781 68.265625c.007813 10.371094-6.230469 19.722656-15.808593 23.695313-9.578126 3.96875-20.601563 1.78125-27.933594-5.550782-7.332032-7.332031-9.523438-18.359375-5.550782-27.9375 3.972657-9.574218 13.324219-15.816406 23.691407-15.804687 6.792969-.011719 13.308593 2.683593 18.113281 7.488281 4.800781 4.800781 7.496094 11.316406 7.488281 18.109375zm0 0" fill="#fec108"/><path d="m503.464844 179.199219c.003906 9.054687-3.589844 17.738281-9.992188 24.140625s-15.085937 9.996094-24.140625 9.992187c-4.394531.035157-8.753906-.835937-12.796875-2.558593-12.890625-5.183594-21.335937-17.679688-21.335937-31.574219 0-13.890625 8.445312-26.390625 21.335937-31.574219 4.042969-1.722656 8.402344-2.59375 12.796875-2.558594 9.054688-.003906 17.738281 3.59375 24.140625 9.996094s9.996094 15.085938 9.992188 24.136719zm0 0" fill="#bb193b"/><path d="m469.332031 281.601562c.011719 10.367188-6.230469 19.71875-15.804687 23.691407-9.578125 3.972656-20.605469 1.78125-27.9375-5.550781-7.332032-7.332032-9.519532-18.359376-5.550782-27.933594 3.972657-9.578125 13.324219-15.816406 23.695313-15.808594 6.792969-.007812 13.308594 2.683594 18.109375 7.488281 4.804688 4.800781 7.5 11.320313 7.488281 18.113281zm0 0" fill="#fec108"/><path d="m426.667969 401.066406c.007812 10.367188-6.230469 19.722656-15.808594 23.691406-9.578125 3.972657-20.605469 1.78125-27.933594-5.546874-7.332031-7.332032-9.523437-18.359376-5.550781-27.9375 3.972656-9.578126 13.324219-15.816407 23.691406-15.808594 6.792969-.007813 13.308594 2.6875 18.113282 7.488281 4.800781 4.804687 7.496093 11.320313 7.488281 18.113281zm0 0" fill="#6a1b9a"/><path d="m366.933594 324.265625c.003906 9.054687-3.59375 17.738281-9.996094 24.140625s-15.085938 9.996094-24.136719 9.992188c-4.398437.035156-8.753906-.835938-12.800781-2.558594-12.890625-5.183594-21.332031-17.679688-21.332031-31.574219 0-13.890625 8.441406-26.390625 21.332031-31.574219 4.046875-1.71875 8.402344-2.59375 12.800781-2.558594 9.050781-.003906 17.734375 3.59375 24.136719 9.996094s10 15.085938 9.996094 24.136719zm0 0" fill="#bb193b"/><g fill="#ef314c"><path d="m298.667969 469.332031c0-17.4375-9.550781-31.570312-21.335938-31.570312-11.78125 0-21.332031 14.132812-21.332031 31.570312s9.550781 31.574219 21.332031 31.574219c11.785157 0 21.335938-14.136719 21.335938-31.574219zm0 0"/><path d="m110.933594 307.199219c0-17.4375-9.550782-31.574219-21.332032-31.574219-11.785156 0-21.335937 14.136719-21.335937 31.574219s9.550781 31.574219 21.335937 31.574219c11.78125 0 21.332032-14.136719 21.332032-31.574219zm0 0"/><path d="m102.398438 102.398438c0-17.4375-9.550782-31.570313-21.332032-31.570313s-21.332031 14.132813-21.332031 31.570313 9.550781 31.574218 21.332031 31.574218 21.332032-14.136718 21.332032-31.574218zm0 0"/><path d="m315.734375 42.667969c0-17.4375-9.550781-31.574219-21.335937-31.574219-11.78125 0-21.332032 14.136719-21.332032 31.574219s9.550782 31.570312 21.332032 31.570312c11.785156 0 21.335937-14.132812 21.335937-31.570312zm0 0"/><path d="m477.867188 179.199219c0-17.4375-9.550782-31.574219-21.332032-31.574219-11.785156 0-21.335937 14.136719-21.335937 31.574219s9.550781 31.574219 21.335937 31.574219c11.78125 0 21.332032-14.136719 21.332032-31.574219zm0 0"/><path d="m341.332031 324.265625c0-17.4375-9.550781-31.574219-21.332031-31.574219s-21.332031 14.136719-21.332031 31.574219 9.550781 31.574219 21.332031 31.574219 21.332031-14.136719 21.332031-31.574219zm0 0"/></g><path d="m187.734375 204.800781c.007813 10.367188-6.230469 19.71875-15.808594 23.691407-9.578125 3.972656-20.605469 1.78125-27.933593-5.550782-7.332032-7.332031-9.523438-18.355468-5.550782-27.933594 3.972656-9.578124 13.324219-15.816406 23.691406-15.808593 6.792969-.007813 13.308594 2.6875 18.113282 7.488281 4.800781 4.804688 7.496094 11.320312 7.488281 18.113281zm0 0" fill="#fec108"/><path d="m290.132812 145.066406c.003907 9.054688-3.59375 17.738282-9.996093 24.140625-6.398438 6.398438-15.082031 9.996094-24.136719 9.992188-4.398438.035156-8.753906-.835938-12.800781-2.558594-12.886719-5.183594-21.332031-17.683594-21.332031-31.574219s8.445312-26.390625 21.332031-31.574218c4.046875-1.722657 8.402343-2.59375 12.800781-2.558594 9.054688-.003906 17.738281 3.59375 24.136719 9.996094 6.402343 6.398437 10 15.082031 9.996093 24.136718zm0 0" fill="#6a1b9a"/><path d="m34.132812 213.332031c.011719 9.15625-4.867187 17.617188-12.800781 22.1875-7.917969-4.578125-12.796875-13.035156-12.796875-22.1875 0-9.148437 4.878906-17.605469 12.796875-22.183593 7.933594 4.570312 12.8125 13.03125 12.800781 22.183593zm0 0" fill="#9d27b0"/><path d="m401.066406 401.066406c.011719 9.152344-4.867187 17.617188-12.800781 22.1875-7.921875-4.582031-12.796875-13.035156-12.796875-22.1875 0-9.148437 4.875-17.605468 12.796875-22.1875 7.929687 4.574219 12.8125 13.035156 12.800781 22.1875zm0 0" fill="#9d27b0"/><path d="m264.535156 145.066406c0-17.4375-9.554687-31.574218-21.335937-31.574218s-21.332031 14.136718-21.332031 31.574218 9.550781 31.574219 21.332031 31.574219 21.335937-14.136719 21.335937-31.574219zm0 0" fill="#9d27b0"/><path d="m384 204.800781c.007812 10.367188-6.230469 19.71875-15.808594 23.691407-9.574218 3.972656-20.601562 1.78125-27.933594-5.550782-7.332031-7.332031-9.523437-18.355468-5.550781-27.933594 3.972657-9.578124 13.324219-15.816406 23.691407-15.808593 6.792968-.007813 13.3125 2.6875 18.113281 7.488281 4.804687 4.804688 7.496093 11.320312 7.488281 18.113281zm0 0" fill="#fec108"/><path d="m213.332031 349.867188c.015625 9.152343-4.867187 17.613281-12.796875 22.1875-7.921875-4.582032-12.800781-13.039063-12.800781-22.1875 0-9.152344 4.878906-17.605469 12.800781-22.1875 7.929688 4.570312 12.808594 13.035156 12.796875 22.1875zm0 0" fill="#ffdc00"/><path d="m196.265625 51.199219c.011719 9.15625-4.867187 17.617187-12.800781 22.1875-7.917969-4.582031-12.796875-13.035157-12.796875-22.1875 0-9.148438 4.878906-17.605469 12.796875-22.1875 7.933594 4.574219 12.8125 13.035156 12.800781 22.1875zm0 0" fill="#ffdc00"/><path d="m435.199219 68.265625c.011719 9.15625-4.867188 17.617187-12.800781 22.1875-7.917969-4.582031-12.796876-13.035156-12.796876-22.1875 0-9.148437 4.878907-17.605469 12.796876-22.1875 7.933593 4.574219 12.8125 13.035156 12.800781 22.1875zm0 0" fill="#ffdc00"/><path d="m443.734375 281.601562c.011719 9.152344-4.871094 17.613282-12.800781 22.183594-7.921875-4.578125-12.800782-13.035156-12.800782-22.183594 0-9.152343 4.878907-17.609374 12.800782-22.1875 7.929687 4.570313 12.8125 13.03125 12.800781 22.1875zm0 0" fill="#ffdc00"/><path d="m162.132812 204.800781c.011719 9.152344-4.867187 17.613281-12.800781 22.1875-7.917969-4.582031-12.796875-13.039062-12.796875-22.1875 0-9.152343 4.878906-17.605469 12.796875-22.1875 7.933594 4.570313 12.8125 13.03125 12.800781 22.1875zm0 0" fill="#ffdc00"/><path d="m358.398438 204.800781c.015624 9.152344-4.867188 17.613281-12.796876 22.1875-7.921874-4.582031-12.800781-13.039062-12.800781-22.1875 0-9.152343 4.878907-17.605469 12.800781-22.1875 7.929688 4.570313 12.8125 13.03125 12.796876 22.1875zm0 0" fill="#ffdc00"/><path d="m213.332031 384c-18.851562 0-34.132812-15.28125-34.132812-34.132812 0-18.851563 15.28125-34.132813 34.132812-34.132813 18.851563 0 34.132813 15.28125 34.132813 34.132813-.019532 18.84375-15.289063 34.113281-34.132813 34.132812zm0-51.199219c-9.425781 0-17.066406 7.640625-17.066406 17.066407 0 9.425781 7.640625 17.066406 17.066406 17.066406s17.066407-7.640625 17.066407-17.066406c-.007813-9.421876-7.644532-17.054688-17.066407-17.066407zm0 0"/><path d="m290.132812 512c-23.5625 0-42.667968-19.101562-42.667968-42.667969 0-23.5625 19.105468-42.664062 42.667968-42.664062 23.566407 0 42.667969 19.101562 42.667969 42.664062-.027343 23.554688-19.113281 42.640625-42.667969 42.667969zm0-68.265625c-14.136718 0-25.597656 11.460937-25.597656 25.597656 0 14.140625 11.460938 25.601563 25.597656 25.601563 14.140626 0 25.601563-11.460938 25.601563-25.601563-.015625-14.128906-11.46875-25.582031-25.601563-25.597656zm0 0"/><path d="m102.398438 349.867188c-23.5625 0-42.664063-19.101563-42.664063-42.667969 0-23.5625 19.101563-42.664063 42.664063-42.664063 23.566406 0 42.667968 19.101563 42.667968 42.664063-.027344 23.554687-19.113281 42.640625-42.667968 42.667969zm0-68.265626c-14.136719 0-25.597657 11.460938-25.597657 25.597657 0 14.140625 11.460938 25.601562 25.597657 25.601562 14.140624 0 25.601562-11.460937 25.601562-25.601562-.015625-14.132813-11.46875-25.582031-25.601562-25.597657zm0 0"/><path d="m34.132812 247.464844c-18.851562 0-34.132812-15.28125-34.132812-34.132813 0-18.851562 15.28125-34.132812 34.132812-34.132812 18.851563 0 34.132813 15.28125 34.132813 34.132812-.019531 18.84375-15.289063 34.113281-34.132813 34.132813zm0-51.199219c-9.425781 0-17.066406 7.640625-17.066406 17.066406s7.640625 17.066407 17.066406 17.066407c9.425782 0 17.066407-7.640626 17.066407-17.066407-.011719-9.417969-7.644531-17.054687-17.066407-17.066406zm0 0"/><path d="m93.867188 145.066406c-23.566407 0-42.667969-19.101562-42.667969-42.667968 0-23.5625 19.101562-42.664063 42.667969-42.664063 23.5625 0 42.667968 19.101563 42.667968 42.664063-.03125 23.554687-19.117187 42.640624-42.667968 42.667968zm0-68.265625c-14.140626 0-25.601563 11.460938-25.601563 25.597657 0 14.140624 11.460937 25.601562 25.601563 25.601562 14.136718 0 25.597656-11.460938 25.597656-25.601562-.015625-14.128907-11.464844-25.582032-25.597656-25.597657zm0 0"/><path d="m196.265625 85.332031c-18.851563 0-34.132813-15.28125-34.132813-34.132812 0-18.851563 15.28125-34.132813 34.132813-34.132813s34.132813 15.28125 34.132813 34.132813c-.019532 18.84375-15.289063 34.113281-34.132813 34.132812zm0-51.199219c-9.425781 0-17.066406 7.640626-17.066406 17.066407s7.640625 17.066406 17.066406 17.066406 17.066406-7.640625 17.066406-17.066406c-.007812-9.421875-7.644531-17.054688-17.066406-17.066407zm0 0"/><path d="m307.199219 85.332031c-23.5625 0-42.664063-19.101562-42.664063-42.664062 0-23.566407 19.101563-42.667969 42.664063-42.667969 23.566406 0 42.667969 19.101562 42.667969 42.667969-.027344 23.550781-19.113282 42.636719-42.667969 42.664062zm0-68.265625c-14.136719 0-25.597657 11.460938-25.597657 25.601563 0 14.136719 11.460938 25.597656 25.597657 25.597656 14.140625 0 25.601562-11.460937 25.601562-25.597656-.015625-14.132813-11.46875-25.585938-25.601562-25.601563zm0 0"/><path d="m435.199219 102.398438c-18.851563 0-34.132813-15.28125-34.132813-34.132813s15.28125-34.132813 34.132813-34.132813c18.851562 0 34.132812 15.28125 34.132812 34.132813-.019531 18.84375-15.289062 34.113281-34.132812 34.132813zm0-51.199219c-9.425781 0-17.066407 7.640625-17.066407 17.066406s7.640626 17.066406 17.066407 17.066406 17.066406-7.640625 17.066406-17.066406c-.011719-9.421875-7.644531-17.054687-17.066406-17.066406zm0 0"/><path d="m469.332031 221.867188c-23.5625 0-42.664062-19.101563-42.664062-42.667969 0-23.5625 19.101562-42.664063 42.664062-42.664063 23.566407 0 42.667969 19.101563 42.667969 42.664063-.027344 23.554687-19.113281 42.640625-42.667969 42.667969zm0-68.265626c-14.136719 0-25.597656 11.460938-25.597656 25.597657 0 14.140625 11.460937 25.601562 25.597656 25.601562 14.140625 0 25.601563-11.460937 25.601563-25.601562-.015625-14.132813-11.46875-25.582031-25.601563-25.597657zm0 0"/><path d="m443.734375 315.734375c-18.851563 0-34.132813-15.28125-34.132813-34.132813 0-18.851562 15.28125-34.136718 34.132813-34.136718s34.132813 15.285156 34.132813 34.136718c-.019532 18.839844-15.289063 34.113282-34.132813 34.132813zm0-51.199219c-9.425781 0-17.066406 7.640625-17.066406 17.066406 0 9.425782 7.640625 17.066407 17.066406 17.066407s17.066406-7.640625 17.066406-17.066407c-.011719-9.421874-7.644531-17.058593-17.066406-17.066406zm0 0"/><path d="m401.066406 435.199219c-18.851562 0-34.132812-15.28125-34.132812-34.132813 0-18.851562 15.28125-34.132812 34.132812-34.132812 18.851563 0 34.132813 15.28125 34.132813 34.132812-.019531 18.84375-15.289063 34.113282-34.132813 34.132813zm0-51.199219c-9.425781 0-17.066406 7.640625-17.066406 17.066406 0 9.425782 7.640625 17.066406 17.066406 17.066406 9.425782 0 17.066406-7.640624 17.066406-17.066406-.011718-9.421875-7.644531-17.054687-17.066406-17.066406zm0 0"/><path d="m332.800781 366.933594c-17.257812 0-32.816406-10.394532-39.417969-26.339844-6.605468-15.941406-2.957031-34.292969 9.246094-46.496094s30.554688-15.855468 46.5-9.25c15.941406 6.605469 26.335938 22.160156 26.335938 39.417969-.027344 23.554687-19.113282 42.640625-42.664063 42.667969zm0-68.265625c-14.140625 0-25.601562 11.460937-25.601562 25.597656 0 14.140625 11.460937 25.601563 25.601562 25.601563 14.136719 0 25.597657-11.460938 25.597657-25.601563-.015626-14.132813-11.464844-25.582031-25.597657-25.597656zm0 0"/><path d="m162.132812 238.933594c-18.851562 0-34.132812-15.28125-34.132812-34.132813 0-18.851562 15.28125-34.132812 34.132812-34.132812 18.851563 0 34.132813 15.28125 34.132813 34.132812-.019531 18.84375-15.289063 34.113281-34.132813 34.132813zm0-51.199219c-9.425781 0-17.066406 7.640625-17.066406 17.066406s7.640625 17.066407 17.066406 17.066407c9.425782 0 17.066407-7.640626 17.066407-17.066407-.011719-9.421875-7.644531-17.054687-17.066407-17.066406zm0 0"/><path d="m256 187.734375c-23.5625 0-42.667969-19.105469-42.667969-42.667969s19.105469-42.667968 42.667969-42.667968 42.667969 19.105468 42.667969 42.667968c-.027344 23.554688-19.117188 42.640625-42.667969 42.667969zm0-68.269531c-14.136719 0-25.601562 11.464844-25.601562 25.601562 0 14.140625 11.464843 25.601563 25.601562 25.601563s25.601562-11.460938 25.601562-25.601563c-.015624-14.132812-11.46875-25.585937-25.601562-25.601562zm0 0"/><path d="m358.398438 238.933594c-18.851563 0-34.132813-15.28125-34.132813-34.132813 0-18.851562 15.28125-34.132812 34.132813-34.132812 18.851562 0 34.136718 15.28125 34.136718 34.132812-.023437 18.84375-15.292968 34.113281-34.136718 34.132813zm0-51.199219c-9.425782 0-17.066407 7.640625-17.066407 17.066406s7.640625 17.066407 17.066407 17.066407c9.425781 0 17.066406-7.640626 17.066406-17.066407-.007813-9.421875-7.644532-17.054687-17.066406-17.066406zm0 0"/><path d="m319.15625 460.03125c-3.820312.003906-7.179688-2.527344-8.222656-6.203125-1.042969-3.675781.484375-7.59375 3.738281-9.597656l60.160156-37.035157c4.011719-2.46875 9.269531-1.21875 11.742188 2.792969 2.46875 4.011719 1.21875 9.269531-2.792969 11.742188l-60.160156 37.035156c-1.34375.828125-2.890625 1.265625-4.464844 1.265625zm0 0"/><path d="m449.972656 265.300781c-.699218 0-1.398437-.085937-2.078125-.25-2.195312-.546875-4.082031-1.945312-5.25-3.886719-1.164062-1.941406-1.511719-4.265624-.960937-6.460937l11.09375-44.460937c.683594-3.011719 2.949218-5.421876 5.914062-6.292969 2.964844-.871094 6.171875-.070313 8.378906 2.09375 2.207032 2.164062 3.074219 5.351562 2.261719 8.335937l-11.09375 44.457032c-.949219 3.796874-4.355469 6.460937-8.265625 6.464843zm0 0"/><path d="m410.121094 71.765625c-.566406 0-1.128906-.058594-1.683594-.171875l-16.734375-3.347656c-4.5625-.980469-7.496094-5.445313-6.578125-10.019532.917969-4.578124 5.339844-7.570312 9.929688-6.714843l16.730468 3.351562c4.289063.867188 7.226563 4.84375 6.796875 9.199219-.429687 4.355469-4.085937 7.679688-8.460937 7.695312zm-50.203125-10.050781c-.566407.003906-1.128907-.050782-1.683594-.164063l-16.730469-3.351562c-4.5625-.980469-7.496094-5.445313-6.578125-10.019531.914063-4.578126 5.339844-7.570313 9.929688-6.714844l16.730469 3.351562c4.289062.867188 7.226562 4.84375 6.796874 9.199219-.429687 4.355469-4.085937 7.679687-8.460937 7.695313zm0 0"/><path d="m124.335938 95.660156c-3.957032.003906-7.398438-2.71875-8.3125-6.570312-.910157-3.855469.949218-7.828125 4.492187-9.597656l49.066406-24.492188c4.207031-2.035156 9.265625-.3125 11.355469 3.867188 2.085938 4.179687.425781 9.261718-3.730469 11.402343l-49.066406 24.488281c-1.179687.589844-2.484375.898438-3.804687.902344zm0 0"/><path d="m82.355469 288.171875c-2.738281.007813-5.308594-1.300781-6.914063-3.519531l-33.195312-45.652344c-2.679688-3.8125-1.808594-9.070312 1.960937-11.8125 3.773438-2.742188 9.042969-1.949219 11.84375 1.777344l33.195313 45.65625c1.882812 2.59375 2.15625 6.023437.703125 8.882812s-4.386719 4.664063-7.59375 4.667969zm0 0"/><path d="m189.523438 349.269531c-1.078126 0-2.148438-.195312-3.15625-.574219l-55.210938-21.335937c-4.296875-1.761719-6.398438-6.636719-4.722656-10.96875 1.671875-4.335937 6.507812-6.53125 10.875-4.945313l54.96875 21.242188c3.929687 1.355469 6.308594 5.351562 5.625 9.453125-.679688 4.101563-4.21875 7.113281-8.378906 7.128906zm0 0"/><path d="m46.242188 199.339844c-3.003907-.003906-5.78125-1.582032-7.320313-4.160156-1.539063-2.578126-1.613281-5.773438-.191406-8.417969l7.148437-13.277344c2.234375-4.152344 7.40625-5.707031 11.558594-3.476563 4.152344 2.230469 5.707031 7.40625 3.476562 11.558594l-7.148437 13.285156c-1.488281 2.765626-4.378906 4.492188-7.523437 4.488282zm23.316406-43.34375c-3-.003906-5.78125-1.582032-7.320313-4.15625-1.539062-2.578125-1.609375-5.773438-.1875-8.417969l8.085938-15.035156c2.230469-4.148438 7.40625-5.707031 11.558593-3.472657 4.152344 2.230469 5.707032 7.40625 3.476563 11.558594l-8.089844 15.03125c-1.488281 2.769532-4.378906 4.5-7.523437 4.496094zm0 0"/><path d="m221.773438 57.769531c-4.578126-.007812-8.335938-3.632812-8.507813-8.210937s3.300781-8.472656 7.867187-8.828125l51.367188-3.925781.738281 8.507812v8.53125l-50.804687 3.902344c-.222656.011718-.441406.023437-.660156.023437zm0 0"/><path d="m459.257812 155.136719c-3.746093-.003907-7.050781-2.445313-8.152343-6.027344l-16.554688-53.921875c-1.386719-4.507812 1.144531-9.28125 5.648438-10.667969 4.507812-1.386719 9.28125 1.144531 10.667969 5.648438l16.554687 53.925781c.796875 2.589844.316406 5.402344-1.296875 7.582031-1.609375 2.179688-4.15625 3.460938-6.867188 3.460938zm0 0"/><path d="m412.191406 378.5c-.976562 0-1.945312-.167969-2.867187-.492188-4.4375-1.585937-6.753907-6.46875-5.171875-10.90625l5.730468-16.078124c1.023438-2.871094 3.503907-4.976563 6.503907-5.527344 2.996093-.546875 6.0625.546875 8.035156 2.867187 1.976563 2.324219 2.5625 5.523438 1.535156 8.394531l-5.726562 16.074219c-1.214844 3.398438-4.429688 5.667969-8.039063 5.667969zm17.191406-48.226562c-2.773437-.003907-5.371093-1.351563-6.96875-3.617188-1.597656-2.265625-1.996093-5.167969-1.066406-7.78125l5.730469-16.074219c1.582031-4.441406 6.464844-6.753906 10.90625-5.171875 4.4375 1.582032 6.753906 6.464844 5.167969 10.902344l-5.734375 16.078125c-1.210938 3.394531-4.425781 5.664063-8.035157 5.664063zm0 0"/><path d="m271.707031 449.195312c-2.90625.003907-5.613281-1.472656-7.1875-3.917968l-44.542969-69.289063c-2.550781-3.964843-1.402343-9.246093 2.5625-11.796875 3.964844-2.546875 9.246094-1.402344 11.796876 2.5625l44.542968 69.292969c1.222656 1.902344 1.640625 4.214844 1.160156 6.425781-.484374 2.210938-1.824218 4.140625-3.726562 5.363282-1.371094.890624-2.96875 1.363281-4.605469 1.359374zm0 0"/><path d="m218.546875 333.3125c-2.570313-.003906-5-1.160156-6.621094-3.152344-1.625-1.992187-2.261719-4.609375-1.742187-7.125l3.488281-16.707031c.964844-4.613281 5.484375-7.574219 10.097656-6.613281 4.613281.964844 7.574219 5.484375 6.613281 10.097656l-3.492187 16.707031c-.828125 3.953125-4.308594 6.785157-8.34375 6.792969zm10.472656-50.117188c-.589843 0-1.175781-.0625-1.753906-.183593-2.214844-.460938-4.15625-1.785157-5.394531-3.675781-1.238282-1.894532-1.675782-4.203126-1.210938-6.417969l3.488282-16.707031c.964843-4.613282 5.484374-7.574219 10.097656-6.613282 4.613281.964844 7.574218 5.484375 6.613281 10.097656l-3.492187 16.707032c-.828126 3.953125-4.308594 6.78125-8.347657 6.789062zm10.4375-50.125c-.585937 0-1.167969-.058593-1.746093-.171874-4.613282-.957032-7.574219-5.476563-6.617188-10.089844l3.472656-16.707032c.574219-3.03125 2.738282-5.519531 5.660156-6.503906 2.925782-.984375 6.152344-.3125 8.441407 1.753906 2.289062 2.0625 3.285156 5.207032 2.605469 8.214844l-3.46875 16.707032c-.824219 3.953124-4.308594 6.789062-8.347657 6.792968zm0 0"/><path d="m147.890625 192c-2.855469.003906-5.523437-1.421875-7.109375-3.800781l-9.460938-14.199219c-2.5625-3.917969-1.484374-9.171875 2.410157-11.769531 3.894531-2.597657 9.15625-1.570313 11.789062 2.300781l9.464844 14.203125c1.742187 2.617187 1.90625 5.980469.425781 8.753906-1.484375 2.773438-4.371094 4.507813-7.519531 4.511719zm-28.382813-42.609375c-2.855468.003906-5.527343-1.421875-7.113281-3.800781l-6.6875-10.039063c-2.613281-3.925781-1.550781-9.222656 2.371094-11.839843 3.925781-2.613282 9.222656-1.550782 11.839844 2.371093l6.6875 10.042969c1.738281 2.617188 1.902343 5.980469.417969 8.753906-1.484376 2.773438-4.371094 4.507813-7.515626 4.511719zm0 0"/><path d="m238.328125 353.023438c-4.355469-.011719-8.003906-3.304688-8.460937-7.640626-.457032-4.332031 2.425781-8.3125 6.6875-9.234374l61.097656-13.054688c3.015625-.730469 6.191406.234375 8.292968 2.519531 2.101563 2.285157 2.792969 5.53125 1.8125 8.472657-.984374 2.945312-3.488281 5.125-6.539062 5.691406l-61.097656 13.054687c-.589844.128907-1.191406.195313-1.792969.191407zm0 0"/><path d="m339.976562 299.433594c-.605468.003906-1.207031-.0625-1.792968-.191406-4.609375-.984376-7.546875-5.515626-6.5625-10.125l13.054687-61.097657c.984375-4.609375 5.519531-7.546875 10.128907-6.5625 4.609374.984375 7.546874 5.519531 6.5625 10.128907l-13.054688 61.101562c-.84375 3.929688-4.316406 6.742188-8.335938 6.746094zm0 0"/><path d="m336.292969 200.449219c-1.511719 0-2.996094-.402344-4.296875-1.167969l-14.738282-8.609375c-3.964843-2.421875-5.265624-7.574219-2.917968-11.585937 2.34375-4.011719 7.46875-5.410157 11.527344-3.144532l14.738281 8.605469c3.324219 1.949219 4.9375 5.882813 3.925781 9.601563-1.007812 3.71875-4.386719 6.300781-8.238281 6.300781zm-44.214844-25.816407c-1.507813 0-2.992187-.402343-4.292969-1.167968l-6.648437-3.882813c-2.695313-1.503906-4.367188-4.351562-4.371094-7.4375-.003906-3.089843 1.660156-5.9375 4.351563-7.453125 2.695312-1.511718 5.992187-1.449218 8.628906.160156l6.644531 3.882813c3.328125 1.945313 4.9375 5.878906 3.929687 9.597656-1.011718 3.722657-4.386718 6.304688-8.242187 6.300781zm0 0"/><path d="m183.730469 199.59375c-3.796875.003906-7.136719-2.503906-8.195313-6.144531-1.0625-3.644531.410156-7.550781 3.609375-9.585938l43.523438-27.644531c2.570312-1.730469 5.882812-1.929688 8.644531-.515625 2.761719 1.410156 4.539062 4.210937 4.644531 7.308594.105469 3.101562-1.480469 6.011719-4.140625 7.609375l-43.519531 27.640625c-1.363281.875-2.949219 1.335937-4.566406 1.332031zm0 0"/><path d="m59.640625 220.160156c-4.609375.011719-8.394531-3.644531-8.546875-8.253906s3.386719-8.503906 7.988281-8.796875l76.972657-5.117187c4.679687-.246094 8.699218 3.277343 9.078124 7.949218.3125 4.703125-3.242187 8.769532-7.945312 9.082032l-76.972656 5.121093c-.191406.003907-.382813.015625-.574219.015625zm0 0"/><path d="m116.640625 284.84375c-3.109375-.003906-5.972656-1.703125-7.46875-4.429688-1.496094-2.726562-1.390625-6.054687.277344-8.679687l4.273437-6.71875c1.59375-2.65625 4.507813-4.238281 7.605469-4.132813 3.097656.105469 5.894531 1.882813 7.304687 4.644532 1.410157 2.757812 1.214844 6.066406-.511718 8.640625l-4.269532 6.714843c-1.566406 2.46875-4.289062 3.960938-7.210937 3.960938zm22.589844-35.519531c-3.117188 0-5.980469-1.699219-7.476563-4.429688-1.5-2.730469-1.390625-6.058593.285156-8.683593l9.15625-14.402344c1.636719-2.570313 4.523438-4.074219 7.570313-3.941406 3.046875.128906 5.789063 1.878906 7.199219 4.582031s1.269531 5.953125-.367188 8.527343l-9.160156 14.398438c-1.570312 2.464844-4.289062 3.953125-7.207031 3.949219zm0 0"/><path d="m237.664062 124.84375c-2.925781.003906-5.644531-1.492188-7.214843-3.960938l-9.152344-14.40625c-2.527344-3.980468-1.351563-9.253906 2.628906-11.78125 3.976563-2.523437 9.253907-1.347656 11.777344 2.628907l9.15625 14.410156c1.664063 2.628906 1.769531 5.953125.273437 8.679687-1.5 2.726563-4.359374 4.421876-7.46875 4.429688zm-27.664062-43.320312c-2.835938.011718-5.480469-1.441407-6.996094-3.839844l-.191406-.296875c-1.695312-2.570313-1.875-5.855469-.472656-8.59375 1.40625-2.742188 4.179687-4.511719 7.253906-4.632813 3.078125-.121094 5.980469 1.421875 7.601562 4.042969 1.734376 2.640625 1.878907 6.027344.378907 8.808594-1.503907 2.78125-4.414063 4.515625-7.574219 4.515625zm0 0"/><path d="m271.265625 123.136719c-2.953125 0-5.695313-1.53125-7.25-4.042969s-1.695313-5.648438-.378906-8.289062l20.652343-41.46875c1.308594-2.8125 4.039063-4.691407 7.132813-4.910157s6.0625 1.257813 7.753906 3.855469c1.691407 2.601562 1.839844 5.914062.386719 8.65625l-20.652344 41.464844c-1.441406 2.902344-4.402344 4.738281-7.644531 4.734375zm0 0"/><path d="m383.308594 207.617188c-4.339844 0-7.992188-3.257813-8.480469-7.570313-.488281-4.316406 2.335937-8.308594 6.566406-9.28125l52.824219-12.203125c4.589844-1.058594 9.175781 1.804688 10.234375 6.398438 1.0625 4.59375-1.804687 9.175781-6.394531 10.234374l-52.824219 12.203126c-.632813.144531-1.277344.21875-1.925781.21875zm0 0"/><path d="m370.9375 190.976562c-3.027344-.003906-5.828125-1.617187-7.355469-4.230468-1.527343-2.617188-1.554687-5.84375-.070312-8.484375l51.714843-91.820313c1.445313-2.75 4.269532-4.5 7.378907-4.5625 3.105469-.0625 6 1.566406 7.558593 4.253906 1.558594 2.691407 1.53125 6.015626-.070312 8.675782l-51.714844 91.820312c-1.511718 2.6875-4.355468 4.351563-7.441406 4.347656zm0 0"/><path d="m303.910156 431.058594c-.820312 0-1.632812-.117188-2.414062-.351563-2.171875-.636719-4-2.109375-5.085938-4.097656-1.082031-1.984375-1.332031-4.320313-.695312-6.492187l4.816406-16.367188c1.328125-4.519531 6.070312-7.109375 10.59375-5.777344 4.523438 1.328125 7.109375 6.070313 5.777344 10.59375l-4.8125 16.367188c-1.066406 3.628906-4.398438 6.121094-8.179688 6.125zm14.441406-49.117188c-.816406.003906-1.628906-.117187-2.410156-.347656-2.171875-.636719-4.003906-2.113281-5.085937-4.097656-1.085938-1.988282-1.335938-4.324219-.695313-6.496094l4.808594-16.375c1.332031-4.523438 6.074219-7.109375 10.597656-5.78125 4.523438 1.332031 7.109375 6.078125 5.78125 10.597656l-4.816406 16.375c-1.066406 3.628906-4.398438 6.125-8.179688 6.125zm0 0"/><path d="m299.777344 445.097656c-.816406.003906-1.632813-.117187-2.414063-.351562-2.171875-.636719-4-2.109375-5.085937-4.097656-1.082032-1.984376-1.332032-4.320313-.691406-6.492188l5.417968-18.433594c1.332032-4.519531 6.074219-7.109375 10.597656-5.777344 4.519532 1.328126 7.109376 6.074219 5.777344 10.59375l-5.417968 18.433594c-1.070313 3.628906-4.402344 6.121094-8.183594 6.125zm0 0"/><path d="m384.085938 390.484375c-2.441407.003906-4.765626-1.039063-6.382813-2.867187l-28.589844-32.167969c-3.046875-3.535157-2.691406-8.859375.796875-11.957031 3.484375-3.097657 8.816406-2.820313 11.964844.621093l28.585938 32.171875c2.230468 2.511719 2.78125 6.097656 1.402343 9.160156-1.375 3.066407-4.417969 5.039063-7.777343 5.039063zm0 0"/><path d="m304.886719 313.257812c-1.746094 0-3.453125-.535156-4.882813-1.542968l-121.773437-85.246094c-3.863281-2.703125-4.804688-8.027344-2.101563-11.890625 2.707032-3.863281 8.027344-4.800781 11.890625-2.097656l121.769531 85.246093c3.054688 2.136719 4.375 6.007813 3.253907 9.566407-1.125 3.554687-4.425781 5.972656-8.15625 5.964843zm0 0"/><path d="m424.703125 273.066406c-2.109375.003906-4.148437-.78125-5.710937-2.199218l-12.671876-11.433594c-2.324218-2.027344-3.375-5.152344-2.75-8.171875.628907-3.019531 2.835938-5.464844 5.777344-6.398438 2.941406-.933593 6.15625-.203125 8.40625 1.902344l12.671875 11.433594c2.621094 2.367187 3.511719 6.105469 2.242188 9.398437-1.265625 3.296875-4.433594 5.46875-7.964844 5.46875zm-38.007813-34.304687c-2.109374.003906-4.148437-.78125-5.710937-2.199219l-9.265625-8.363281c-3.414062-3.175781-3.644531-8.503907-.519531-11.960938 3.121093-3.460937 8.445312-3.773437 11.953125-.703125l9.265625 8.359375c2.621093 2.367188 3.511719 6.101563 2.246093 9.398438-1.265624 3.292969-4.433593 5.46875-7.964843 5.46875zm0 0"/></svg>